<svg xmlns="http://www.w3.org/2000/svg" width="42" height="19.031" viewBox="0 0 42 19.031">
  <defs>
    <style>
      .cls-1 {
        fill: #fff;
        fill-rule: evenodd;
      }
    </style>
  </defs>
  <path id="arrow.svg" class="cls-1" d="M744.658,182.139h0l0,0a0.764,0.764,0,0,0-.224-0.109,0.647,0.647,0,0,0-.073-0.018,0.8,0.8,0,0,0-.191-0.02,0.577,0.577,0,0,0-.072,0,0.228,0.228,0,0,0-.037,0,0.84,0.84,0,0,0-.215.057l-0.02.011a0.8,0.8,0,0,0-.2.128c-0.008.006-.019,0.01-0.027,0.017l-3.636,3.477a0.575,0.575,0,0,0,.05.9,0.847,0.847,0,0,0,1.059-.064l1.96-1.874a16.394,16.394,0,0,0,.577,5.113c1.94,7.572,9.532,12.5,16.924,10.98a0.681,0.681,0,0,0,.589-0.673,0.564,0.564,0,0,0-.015-0.1,0.742,0.742,0,0,0-.892-0.47c-6.584,1.35-13.376-3.152-15.146-10.058a15.4,15.4,0,0,1-.524-5l1.8,2.557a0.816,0.816,0,0,0,1.026.2,0.6,0.6,0,0,0,.265-0.88l-2.834-4.031A0.682,0.682,0,0,0,744.658,182.139Zm9.876,0h0l0,0a0.764,0.764,0,0,0-.224-0.109,0.647,0.647,0,0,0-.073-0.018,0.81,0.81,0,0,0-.191-0.02,0.593,0.593,0,0,0-.073,0,0.216,0.216,0,0,0-.036,0,0.84,0.84,0,0,0-.215.057l-0.02.011a0.777,0.777,0,0,0-.2.128c-0.008.006-.019,0.01-0.027,0.017l-3.636,3.477a0.575,0.575,0,0,0,.05.9,0.846,0.846,0,0,0,1.058-.064l1.961-1.874a16.36,16.36,0,0,0,.577,5.113c1.94,7.572,9.532,12.5,16.924,10.98a0.624,0.624,0,0,0,.573-0.772,0.742,0.742,0,0,0-.891-0.47c-6.584,1.35-13.376-3.152-15.147-10.058a15.462,15.462,0,0,1-.524-5l1.8,2.557a0.818,0.818,0,0,0,1.027.2,0.6,0.6,0,0,0,.265-0.88l-2.835-4.031A0.677,0.677,0,0,0,754.534,182.139Zm-20.65,0h0l0,0a0.759,0.759,0,0,0-.223-0.109,0.705,0.705,0,0,0-.073-0.018,0.813,0.813,0,0,0-.192-0.02,0.577,0.577,0,0,0-.072,0,0.216,0.216,0,0,0-.036,0,0.859,0.859,0,0,0-.216.057c-0.007,0-.012.008-0.019,0.011a0.777,0.777,0,0,0-.2.128c-0.008.006-.02,0.01-0.028,0.017l-3.635,3.477a0.574,0.574,0,0,0,.05.9,0.846,0.846,0,0,0,1.058-.064l1.96-1.874a16.427,16.427,0,0,0,.577,5.113c1.941,7.572,9.533,12.5,16.924,10.98a0.681,0.681,0,0,0,.589-0.673,0.564,0.564,0,0,0-.015-0.1,0.742,0.742,0,0,0-.892-0.47c-6.583,1.35-13.376-3.152-15.146-10.058a15.431,15.431,0,0,1-.524-5l1.8,2.557a0.818,0.818,0,0,0,1.027.2,0.6,0.6,0,0,0,.264-0.88l-2.834-4.031A0.682,0.682,0,0,0,733.884,182.139Z" transform="translate(-729 -182)"/>
</svg>
