<svg xmlns="http://www.w3.org/2000/svg" width="32.281" height="32.281" viewBox="0 0 32.281 32.281">
  <defs>
    <style>
      .cls-1 {
        fill: #fff;
        fill-rule: evenodd;
      }
    </style>
  </defs>
  <path id="dots.svg" class="cls-1" d="M968.556,189.586a2,2,0,1,1-2.828,0A2,2,0,0,1,968.556,189.586Zm-7.071-7.072a2,2,0,1,1-2.828,0A2,2,0,0,1,961.485,182.514Zm-7.071-7.071a2,2,0,1,1-2.828,0A2,2,0,0,1,954.414,175.443Zm7.071,21.214a2,2,0,1,1-2.828,0A2,2,0,0,1,961.485,196.657Zm-7.071-7.071a2,2,0,1,1-2.828,0A2,2,0,0,1,954.414,189.586Zm-7.071-7.072a2,2,0,1,1-2.828,0A2,2,0,0,1,947.343,182.514Zm7.071,21.214a2,2,0,1,1-2.828,0A2,2,0,0,1,954.414,203.728Zm-7.071-7.071a2,2,0,1,1-2.828,0A2,2,0,0,1,947.343,196.657Zm-7.071-7.071a2,2,0,1,1-2.828,0A2,2,0,0,1,940.272,189.586Z" transform="translate(-936.875 -174.875)"/>
</svg>
