<svg xmlns="http://www.w3.org/2000/svg" width="13" height="27" viewBox="0 0 13 27">
  <defs>
    <style>
      .cls-1 {
        fill: #c1c4c5;
        fill-rule: evenodd;
      }
    </style>
  </defs>
  <path id="facebook.svg" class="cls-1" d="M1519.65,53.846V51.519a5.433,5.433,0,0,1,.05-0.81,1.469,1.469,0,0,1,.23-0.566,0.941,0.941,0,0,1,.57-0.385,4.287,4.287,0,0,1,1.06-.106h2.41V45h-3.85q-3.33,0-4.79,1.532a6.32,6.32,0,0,0-1.45,4.514v2.8H1511V58.5h2.88V72h5.77V58.5h3.84l0.51-4.654h-4.35Z" transform="translate(-1511 -45)"/>
</svg>
