<svg  xmlns="http://www.w3.org/2000/svg" width="25" height="25" viewBox="0 0 25 25">
  <defs>
    <style>
      .cls-1 {
        fill: #c1c4c4;
        fill-rule: evenodd;
      }
    </style>
  </defs>
  <path id="instagram.svg"  class="cls-1" d="M1580.06,46.942A3.1,3.1,0,0,0,1577.8,46h-18.59A3.216,3.216,0,0,0,1556,49.2v18.59A3.218,3.218,0,0,0,1559.21,71h18.59a3.218,3.218,0,0,0,3.2-3.207V49.2A3.08,3.08,0,0,0,1580.06,46.942Zm-15.08,8.066a5.123,5.123,0,0,1,7.09,0,4.744,4.744,0,0,1,0,6.886,5.123,5.123,0,0,1-7.09,0A4.744,4.744,0,0,1,1564.98,55.008Zm13.19,12.119a0.966,0.966,0,0,1-.29.708,0.979,0.979,0,0,1-.7.285h-17.41a0.946,0.946,0,0,1-.7-0.285,0.966,0.966,0,0,1-.29-0.708V56.579h2.3a6.915,6.915,0,0,0-.33,2.132,7.146,7.146,0,0,0,2.28,5.332,7.614,7.614,0,0,0,5.49,2.206,7.791,7.791,0,0,0,3.9-1.01,7.61,7.61,0,0,0,2.84-2.743,7.255,7.255,0,0,0,1.04-3.785,6.915,6.915,0,0,0-.33-2.132h2.2V67.127h0Zm0-14.537a1.078,1.078,0,0,1-.33.8,1.065,1.065,0,0,1-.79.325h-2.84a1.065,1.065,0,0,1-.79-0.325,1.078,1.078,0,0,1-.33-0.8V49.9a1.084,1.084,0,0,1,.33-0.789,1.05,1.05,0,0,1,.79-0.334h2.84a1.05,1.05,0,0,1,.79.334,1.084,1.084,0,0,1,.33.789V52.59Z" transform="translate(-1556 -46)"/>
</svg>
