<svg xmlns="http://www.w3.org/2000/svg" width="18" height="18" viewBox="0 0 18 18">
  <defs>
    <style>
      .cls-1 {
        fill: #197d5c;
        fill-rule: evenodd;
      }
    </style>
  </defs>
  <path id="telephon.svg" class="cls-1" d="M690.991,63.2a0.872,0.872,0,0,1-.267.763l-2.534,2.517a1.431,1.431,0,0,1-.448.324,1.839,1.839,0,0,1-.543.172q-0.019,0-.114.01c-0.064.006-.146,0.01-0.248,0.01a8.76,8.76,0,0,1-1.172-.124,8.913,8.913,0,0,1-1.982-.61,16.632,16.632,0,0,1-2.658-1.458,19.846,19.846,0,0,1-3.163-2.67,20.843,20.843,0,0,1-2.21-2.517,17.778,17.778,0,0,1-1.41-2.221,11.962,11.962,0,0,1-.8-1.85,9.841,9.841,0,0,1-.362-1.43A4.739,4.739,0,0,1,673,53.175c0.013-.229.019-0.356,0.019-0.381a1.864,1.864,0,0,1,.171-0.543,1.433,1.433,0,0,1,.324-0.449l2.535-2.536A0.841,0.841,0,0,1,676.661,49a0.712,0.712,0,0,1,.439.142,1.33,1.33,0,0,1,.324.353l2.039,3.871a0.929,0.929,0,0,1,.1.667,1.189,1.189,0,0,1-.324.61l-0.934.934a0.322,0.322,0,0,0-.066.124,0.477,0.477,0,0,0-.029.143,3.453,3.453,0,0,0,.343.915,8.321,8.321,0,0,0,.705,1.115,12.422,12.422,0,0,0,1.353,1.516,12.684,12.684,0,0,0,1.524,1.364,8.974,8.974,0,0,0,1.115.715,2.976,2.976,0,0,0,.686.276l0.238,0.048a0.461,0.461,0,0,0,.124-0.029,0.325,0.325,0,0,0,.124-0.067l1.086-1.106a1.168,1.168,0,0,1,.8-0.305,0.994,0.994,0,0,1,.515.114h0.019l3.678,2.174A0.96,0.96,0,0,1,690.991,63.2Z" transform="translate(-673 -49)"/>
</svg>
