<svg  xmlns="http://www.w3.org/2000/svg" width="33" height="19" viewBox="0 0 33 19">
  <path    fill="#c1c4c4" d="M1482.82,66.161a1.464,1.464,0,0,0-.11-0.216,17.26,17.26,0,0,0-3.28-3.834l-0.03-.034-0.02-.017-0.02-.017h-0.02c-0.73-.706-1.19-1.18-1.39-1.423a1.366,1.366,0,0,1-.24-1.405,12.959,12.959,0,0,1,1.55-2.272q0.705-.919,1.11-1.475,2.985-3.989,2.58-5.1l-0.1-.174a1.026,1.026,0,0,0-.53-0.286,2.69,2.69,0,0,0-1.1-.044l-4.95.035a0.62,0.62,0,0,0-.34.009l-0.23.052-0.08.043-0.07.052a0.749,0.749,0,0,0-.19.182,1.014,1.014,0,0,0-.17.3,28.283,28.283,0,0,1-1.84,3.9q-0.63,1.075-1.17,1.864a8.6,8.6,0,0,1-.89,1.162,5.736,5.736,0,0,1-.66.6,0.611,0.611,0,0,1-.44.191c-0.1-.024-0.2-0.046-0.29-0.069a1.185,1.185,0,0,1-.39-0.425,1.986,1.986,0,0,1-.2-0.677q-0.045-.408-0.06-0.7c0-.2,0-0.474.01-0.833s0.02-.6.02-0.729c0-.439.01-0.916,0.02-1.43s0.03-.923.05-1.223,0.01-.619.01-0.954a4.041,4.041,0,0,0-.06-0.789,2.738,2.738,0,0,0-.18-0.555,0.891,0.891,0,0,0-.35-0.416,1.989,1.989,0,0,0-.57-0.235,11.366,11.366,0,0,0-2.32-.225,11.209,11.209,0,0,0-4.11.417,2.244,2.244,0,0,0-.65.52q-0.315.382-.09,0.416a2.079,2.079,0,0,1,1.46.746l0.1,0.208a3.255,3.255,0,0,1,.25.8,7.841,7.841,0,0,1,.15,1.266,12.983,12.983,0,0,1,0,2.168c-0.06.6-.11,1.07-0.16,1.405a2.863,2.863,0,0,1-.24.815,4.143,4.143,0,0,1-.2.381,0.278,0.278,0,0,1-.09.087,1.26,1.26,0,0,1-.46.087,1.1,1.1,0,0,1-.59-0.243,4.639,4.639,0,0,1-.71-0.668,9.6,9.6,0,0,1-.83-1.188,20.073,20.073,0,0,1-.96-1.8l-0.28-.5c-0.17-.324-0.4-0.8-0.7-1.414s-0.56-1.217-.79-1.8a1.107,1.107,0,0,0-.42-0.555l-0.08-.052a1.214,1.214,0,0,0-.28-0.148,1.678,1.678,0,0,0-.39-0.112l-4.71.034a1.19,1.19,0,0,0-.98.33l-0.07.1a0.624,0.624,0,0,0-.05.278,1.4,1.4,0,0,0,.11.468q1.02,2.446,2.24,4.718c0.8,1.514,1.51,2.735,2.1,3.659s1.2,1.8,1.82,2.619,1.03,1.347,1.23,1.578,0.36,0.4.47,0.52l0.43,0.416a10.819,10.819,0,0,0,1.21,1q0.81,0.581,1.77,1.145a9.591,9.591,0,0,0,2.26.919,7.756,7.756,0,0,0,2.51.287h1.98a1.368,1.368,0,0,0,.91-0.382l0.07-.087a1.452,1.452,0,0,0,.12-0.321,1.785,1.785,0,0,0,.06-0.477,5.608,5.608,0,0,1,.12-1.344,3.327,3.327,0,0,1,.29-0.9,2.15,2.15,0,0,1,.37-0.511,1.239,1.239,0,0,1,.29-0.252,0.924,0.924,0,0,1,.14-0.061,1.082,1.082,0,0,1,.97.268,5.939,5.939,0,0,1,1.05,1.006q0.48,0.6,1.17,1.345a7.925,7.925,0,0,0,1.21,1.11l0.34,0.208a4.281,4.281,0,0,0,.89.381,1.906,1.906,0,0,0,.96.087l4.4-.069a1.986,1.986,0,0,0,1.02-.217,0.871,0.871,0,0,0,.43-0.477,1.458,1.458,0,0,0,0-.59A2.166,2.166,0,0,0,1482.82,66.161Z" transform="translate(-1450 -49)"/>
</svg>
