<svg xmlns="http://www.w3.org/2000/svg" width="70.03" height="62.031" viewBox="0 0 70.03 62.031">
  <defs>
    <style>
      .cls-1 {
        fill: #197d5c;
        fill-rule: evenodd;
      }
    </style>
  </defs>
  <path id="card.svg" class="cls-1" d="M1183.32,534.091l-42.87-9.015a3.375,3.375,0,0,0-3.99,2.584l-0.82,5.2,49.47,10.4,0.81-5.2A3.349,3.349,0,0,0,1183.32,534.091Zm-18.02,10.273a3.423,3.423,0,0,0-4.19-2.354l-8.14,2.245-19.19-4.035-2.11,9.907-13.18,3.635a3.391,3.391,0,0,0-2.37,4.161l7.43,26.6a3.418,3.418,0,0,0,4.19,2.353l42.62-11.751a3.391,3.391,0,0,0,2.37-4.161l-1.28-4.567,4.78,1a3.389,3.389,0,0,0,4-2.583l3.02-14.2L1166.03,547Zm4.92,13.52,1.05-4.949a1.4,1.4,0,0,1,1.65-1.063l4.98,1.048a1.394,1.394,0,0,1,1.07,1.633l-1.06,4.95a1.39,1.39,0,0,1-1.64,1.062l-4.98-1.047A1.379,1.379,0,0,1,1170.22,557.884Zm-50.99-1.467,11.8-3.251,27.82-7.673,3-.827a0.628,0.628,0,0,1,.16-0.021,0.637,0.637,0,0,1,.61.456l0.35,1.258,1.1,3.944-43.82,12.085-1.46-5.2A0.634,0.634,0,0,1,1119.23,556.417Zm50.82,15.285a0.593,0.593,0,0,1-.06.473,0.611,0.611,0,0,1-.37.3L1127,584.223a0.645,0.645,0,0,1-.16.022,0.659,0.659,0,0,1-.62-0.457l-4.33-15.517,43.83-12.085,2.67,9.57Zm-36.17,1.062a1.385,1.385,0,0,0-1.7-.96l-4.98,1.373a1.383,1.383,0,0,0-.97,1.7l1.39,4.944a1.384,1.384,0,0,0,1.7.959l4.98-1.372a1.383,1.383,0,0,0,.97-1.7Z" transform="translate(-1116 -524.969)"/>
</svg>
