<svg xmlns="http://www.w3.org/2000/svg" width="71" height="71" viewBox="0 0 71 71">
  <defs>
    <style>
      .cls-1 {
        fill: #197d5c;
        fill-rule: evenodd;
      }
    </style>
  </defs>
  <path id="time.svg" class="cls-1" d="M845.5,524A35.5,35.5,0,1,0,881,559.5,35.54,35.54,0,0,0,845.5,524Zm14.929,59.209-1.53-2.632a0.994,0.994,0,0,0-.857-0.492,0.989,0.989,0,0,0-.853,1.486l1.532,2.635a27.819,27.819,0,0,1-11.353,3.256v-3.716a1.868,1.868,0,0,0-3.736,0v3.716a27.823,27.823,0,0,1-11.2-3.176l1.516-2.644a0.987,0.987,0,0,0-.366-1.349,0.966,0.966,0,0,0-.49-0.132,1,1,0,0,0-.86.5l-1.514,2.641a28.238,28.238,0,0,1-8.491-8.2l3.211-1.854a1.868,1.868,0,0,0-1.868-3.236l-3.216,1.857a27.831,27.831,0,0,1-2.856-11.287l3.051-.01a0.988,0.988,0,0,0,.986-0.992,0.991,0.991,0,0,0-.989-0.985l-3.055.009a27.859,27.859,0,0,1,2.862-11.459L823.567,549a1.868,1.868,0,1,0,1.869-3.236l-3.212-1.854a28.254,28.254,0,0,1,8.347-8.113l1.53,2.631a0.97,0.97,0,0,0,.361.361,1,1,0,0,0,.99,0,0.988,0.988,0,0,0,.359-1.352l-1.532-2.634a27.8,27.8,0,0,1,11.352-3.257v3.716a1.869,1.869,0,0,0,3.737,0v-3.716a27.834,27.834,0,0,1,11.2,3.176l-1.516,2.644a0.99,0.99,0,0,0,.366,1.35,0.976,0.976,0,0,0,.491.131,0.994,0.994,0,0,0,.859-0.5l1.514-2.641a28.253,28.253,0,0,1,8.492,8.2l-3.211,1.854A1.868,1.868,0,1,0,867.432,549l3.216-1.857a27.836,27.836,0,0,1,2.856,11.288l-3.051.009a0.987,0.987,0,0,0-.986.991,0.989,0.989,0,0,0,.989.987h0l3.051-.01a27.827,27.827,0,0,1-2.862,11.459l-3.216-1.857a1.868,1.868,0,1,0-1.868,3.236l3.211,1.854A28.266,28.266,0,0,1,860.429,583.209Zm-1.12-33.841-11.984,6.65a3.918,3.918,0,0,0-3.65,0l-11.984-6.65a2.347,2.347,0,1,0-2.277,4.1l12.227,6.784a3.932,3.932,0,0,0,7.717,0l12.227-6.784A2.347,2.347,0,0,0,859.309,549.368Z" transform="translate(-810 -524)"/>
</svg>
